<svg width="120" height="120" viewBox="0 0 120 120" fill="none" xmlns="http://www.w3.org/2000/svg">

    <g id="logo">
    <path
        d="M171.415,301.451s5.706,5.25,10.438,15.654a7.052,7.052,0,0,0,9.443,3.466h0a7.048,7.048,0,0,0,3.517-8.982,49.92,49.92,0,0,0-18.665-23.36Z"
        style="fill:currentColor" />
    <path
        d="M164.722,289.209a58.957,58.957,0,0,0-17.77,19.476,6.787,6.787,0,0,0,1.566,8.346h0a6.792,6.792,0,0,0,10.123-1.427c3.006-4.6,7.512-10.5,12.774-14.153Z"
        style="fill:currentColor" />
    <path
        d="M234.613,208.287,170,277.722l-64.613-69.435-12.4-1.192S94.027,292.229,170,298.468c75.973-6.239,77.764-93.669,77.764-93.669Z"
        style="fill:currentColor" />
    <rect height="32.165" rx="7.274" style="fill:#ffc08d" width="14.548" x="162.726" y="272.409" />
    <path
        d="M189.719,77.857a12.7,12.7,0,0,1-5.425-4.342l-.954-1.335a12.769,12.769,0,0,0-10.39-5.347h-5.9a12.769,12.769,0,0,0-10.39,5.347l-.954,1.335a12.7,12.7,0,0,1-5.425,4.342,180.287,180.287,0,0,0-19.136,9.5s-41.405,29.459-53.4,55.9c0,0,20.3,32.925,92.251,32.925S262.943,142.8,262.943,142.8c-11.371-25.067-51.2-53.77-51.2-53.77A182.3,182.3,0,0,0,189.719,77.857Z"
        style="fill:currentColor" />
    <path
        d="M211.739,89.034c.127,8.706-1.849,32.441-26.21,40.888a43.244,43.244,0,0,1-28.816-.208c-25.593-9.269-25.918-35.643-25.568-42.362-18.262,10.411-42.929,28.5-54.92,54.94,0,0,21.819,33.88,93.775,33.88s93.775-33.88,93.775-33.88C252.4,117.222,229.636,99.661,211.739,89.034Z"
        style="fill:currentColor" />
    <path d="M53.6,182.7s-12.1,10.976-13.874,32.017H97.894S71.213,182.963,53.6,182.7Z"
        style="fill:currentColor" />
    <path
        d="M87.338,208.553l-20.9-2.1A113.506,113.506,0,0,0,40.4,208.886c-3.624.837-7.092,3.14-8.241,6.678a72.6,72.6,0,0,0-2.674,11.383s-.329,8.383-.094,12.846H89.94S100.174,213.053,87.338,208.553Z"
        style="fill:currentColor" />
    <path
        d="M87.755,208.043a162.294,162.294,0,0,0-21.322-1.589l7.031,5.862a4.11,4.11,0,0,1-2.327,7.259,210.587,210.587,0,0,0-41.653,7.373,63.861,63.861,0,0,0-.694,12.845H91.074S100.591,212.542,87.755,208.043Z"
        style="fill:currentColor" />
    <path
        d="M93.286,256.377l.035-12.978a50.656,50.656,0,0,0-1.724-8.224,13.237,13.237,0,0,0-12.823-9.165c-11.909.111-36.543,1.641-54.621,11.5a11.081,11.081,0,0,0-5.794,8.7l-.975,10.8-.178,11.207Z"
        style="fill:currentColor" />
    <path
        d="M93.32,243.4c-9.829-.97-44.481-2.894-75.936,13.617l-.992,10.992L94,256.268A86.752,86.752,0,0,0,93.32,243.4Z"
        style="fill:currentColor" />
    <path
        d="M223.924,245.153s7.584-5.941,17.439-6.33a129.856,129.856,0,0,0,6.4-34.024l-13.151,3.488L193,253H214.55Z"
        style="fill:currentColor" />
    <path
        d="M105.387,208.287l-12.4-1.192a122.616,122.616,0,0,0,5.937,32.611c4.636.065,15.822,1.556,25.54,13.3H147Z"
        style="fill:currentColor" />
    <path
        d="M87.376,250.141s10,1.5,10.518,12.99v8.661A9.555,9.555,0,0,1,89,281.332c-15.328,1.057-47.22,4.395-69.448,14.537A6.732,6.732,0,0,1,10,289.764v-14a12.728,12.728,0,0,1,7.38-11.445C30.388,258.112,58.741,246.835,87.376,250.141Z"
        style="fill:currentColor" />
    <path
        d="M210.03,212.542H129.97l-18.649,15.125C123.112,289.748,170,289.742,170,289.742s46.888.006,58.679-62.075Z"
        style="fill:currentColor" />
    <path
        d="M170,212.542H129.97l-18.649,15.125a111.022,111.022,0,0,0,4.755,17.486c4.161,1.1,9.092,1.162,13.134-2.367,0,0,17.888,18.591,40.79,18.591s40.79-18.591,40.79-18.591c4.042,3.529,8.973,3.467,13.134,2.367a111.022,111.022,0,0,0,4.755-17.486L210.03,212.542Z"
        style="fill:currentColor" />
    <path
        d="M195.233,254.385C185.528,240.831,170,241.842,170,241.842s-15.528-1.011-25.233,12.543a8.627,8.627,0,0,0,7.032,13.623h36.4a8.627,8.627,0,0,0,7.032-13.623Z"
        style="fill:currentColor" />
    <path d="M286.4,182.7s12.1,10.976,13.874,32.017H242.106S268.787,182.963,286.4,182.7Z"
        style="fill:currentColor" />
    <path
        d="M252.664,208.553l20.9-2.1a113.506,113.506,0,0,1,26.038,2.433c3.624.837,7.092,3.14,8.241,6.678a72.6,72.6,0,0,1,2.674,11.383s.456,8.383.222,12.846h-61.1S239.828,213.053,252.664,208.553Z"
        style="fill:currentColor" />
    <path
        d="M310.516,226.948a210.587,210.587,0,0,0-41.653-7.373,4.11,4.11,0,0,1-2.327-7.259l7.031-5.862a162.294,162.294,0,0,0-21.322,1.589c-12.836,4.5-3.319,31.75-3.319,31.75H311.21A63.861,63.861,0,0,0,310.516,226.948Z"
        style="fill:currentColor" />
    <path
        d="M246.67,256.37l.009-12.971a50.656,50.656,0,0,1,1.724-8.224,13.237,13.237,0,0,1,12.823-9.165c11.909.111,36.543,1.641,54.621,11.5a11.081,11.081,0,0,1,5.794,8.7l.975,10.8L322.9,267.9Z"
        style="fill:currentColor" />
    <path
        d="M322.616,257.016c-31.455-16.511-66.107-14.587-75.936-13.617A86.752,86.752,0,0,0,246,256.268l77.612,11.74Z"
        style="fill:currentColor" />
    <path
        d="M230.548,167.417,170,176.172l-60.548-8.755L84.1,202.622s8,17.143,21.771,27.577a18.762,18.762,0,0,0,22.08.291l10.417-7.312a14.676,14.676,0,0,1,2.221-1.224,1,1,0,0,1,1.278,1.433c-1.988,3.13-4.224,8.337-.664,12.427A58.351,58.351,0,0,0,168.541,252.8a5.319,5.319,0,0,0,2.918,0,57.457,57.457,0,0,0,27.334-16.983c3.748-4.43,1.777-9.226-.245-12.215a1,1,0,0,1,1.269-1.451,13.359,13.359,0,0,1,1.811,1.03l10.417,7.312a18.762,18.762,0,0,0,22.08-.291C247.9,219.765,255.9,202.622,255.9,202.622Z"
        style="fill:currentColor" />
    <path
        d="M248.236,215.286c.136-.19.274-.378.407-.566q.627-.885,1.2-1.739c.041-.061.088-.126.129-.187l0,0a85.151,85.151,0,0,0,5.925-10.169l-25.348-35.205L170,176.172l-60.548-8.755L84.1,202.622a85.322,85.322,0,0,0,5.925,10.169l0,0c.049.073.105.151.155.224.4.594.815,1.2,1.253,1.813.086.121.178.244.265.366q.558.779,1.157,1.574c.15.2.3.4.453.6.083.109.161.216.246.325l.007,0A67.214,67.214,0,0,0,105.875,230.2a18.762,18.762,0,0,0,22.08.291c-5.708,1.7-13.332-2.745-13.332-2.745-16.944-9.28-9.976-19.529-9.976-19.529l-.109.009c.774-1.044,1.548-2.176,2.316-3.426l13.3-17.719s16.348,7.152,49.959,7.226v0h.516v0c33.612-.074,49.959-7.226,49.959-7.226l13.3,17.719c.675,1.1,1.355,2.1,2.034,3.041h-.007s6.4,10.626-10.542,19.906c0,0-8.317,5.384-13.332,2.745a18.762,18.762,0,0,0,22.08-.291,67.606,67.606,0,0,0,12.516-12.765l0,0c.035-.045.067-.09.1-.136.149-.2.291-.388.437-.583Q247.725,215.994,248.236,215.286Z"
        style="fill:currentColor" />
    <path
        d="M224.288,169.085c2.02,9.675.964,16.7-1.006,21.629a17.269,17.269,0,0,1-15.794,10.695,68.249,68.249,0,0,1-12.272-.9,15.816,15.816,0,0,1-11.861-9.153l-5.071-11.284.188-5.128,45.816-6.625Z"
        style="fill:currentColor" />
    <path
        d="M272.583,105.677c-4.421,9.384-15.83,30.3-35.09,44.186,0,0-11.272,10.019-19.486,12.4l30.582,41.534c3.452,4.722,8.655,6.556,13.556,3.362a24.148,24.148,0,0,1,3.089-1.392c13.733-9.451,35.739-28.6,43.947-58.347a16.536,16.536,0,0,0-4.153-16.074l-26.506-26.683A3.677,3.677,0,0,0,272.583,105.677Z"
        style="fill:currentColor" />
    <circle cx="262.943" cy="147.809" r="9.171" style="fill:currentColor" />
    <path
        d="M254.03,249.99a13.489,13.489,0,0,0-6.469,2.337c-2.565,1.811-5.194,5.058-5.455,10.8v8.661a9.555,9.555,0,0,0,8.892,9.54c15.328,1.057,47.22,4.395,69.448,14.537A6.732,6.732,0,0,0,330,289.764v-14a12.728,12.728,0,0,0-7.38-11.445C309.825,258.213,282.183,247.2,254.03,249.99Z"
        style="fill:currentColor" />
    <path
        d="M115.712,169.085c-2.02,9.675-.964,16.7,1.006,21.629a17.269,17.269,0,0,0,15.794,10.695,68.249,68.249,0,0,0,12.272-.9,15.816,15.816,0,0,0,11.861-9.153l5.071-11.284-.188-5.128-45.816-6.625Z"
        style="fill:currentColor" />
    <path
        d="M67.417,105.677c4.454,9.452,16,30.608,35.512,44.488,0,0,11.388,9.445,19.423,11.769L91.475,204.2c-3.452,4.722-9.239,5.92-14.139,2.726l-2.526-1.129c-13.731-9.44-35.774-28.6-43.991-58.377a16.536,16.536,0,0,1,4.153-16.074l26.506-26.683A3.677,3.677,0,0,1,67.417,105.677Z"
        style="fill:currentColor" />
    <circle cx="77.057" cy="147.809" r="9.171" style="fill:currentColor" />
    <path
        d="M77.35,207.493A10.988,10.988,0,0,0,92.236,204.8l32.223-44.074a71.294,71.294,0,0,1-21.526-10.566c-.116.117-.231.234-.339.361-2.473,2.932-6.316,9.069-6.428,18.982a6.148,6.148,0,0,0,1.29,3.826,6.121,6.121,0,0,1-.053,7.566L79.23,203.669a5.442,5.442,0,0,1-4.42,2.122C75.692,206.4,76.542,206.966,77.35,207.493Z"
        style="fill:currentColor" />
    <path
        d="M261.516,203.669l-18.172-22.775a6.118,6.118,0,0,1-.053-7.566,6.147,6.147,0,0,0,1.289-3.826c-.111-9.913-3.954-16.05-6.428-18.982a5.848,5.848,0,0,0-.66-.657,71.476,71.476,0,0,1-21.951,10.862L247.764,204.8a10.988,10.988,0,0,0,14.886,2.694q1.233-.8,2.584-1.731A5.451,5.451,0,0,1,261.516,203.669Z"
        style="fill:currentColor" />
    <path
        d="M236.012,163.278c-3.08-10.9-9.62-15.487-14.582-17.42a14.934,14.934,0,0,0-9.891-.307L170,158.577l-41.539-13.026a14.934,14.934,0,0,0-9.891.307c-4.962,1.933-11.5,6.522-14.582,17.42a8.459,8.459,0,0,0,4.9,10.051c10.066,4.223,31.719,11.526,61.109,11.526s51.044-7.3,61.109-11.526A8.459,8.459,0,0,0,236.012,163.278Z"
        style="fill:currentColor" />
    <path
        d="M226.509,148.651a22.2,22.2,0,0,0-5.079-2.793,14.934,14.934,0,0,0-9.891-.307L170,158.577l-41.539-13.026a14.934,14.934,0,0,0-9.891.307,22.29,22.29,0,0,0-3.727,1.877c3.732,5.324,19.381,23.977,55.53,23.977C201.373,171.712,219.223,156.637,226.509,148.651Z"
        style="fill:currentColor" />
    <path
        d="M243.188,19.123a41.9,41.9,0,0,0-17,12.613,15.228,15.228,0,0,1-13.976,5.345,24.669,24.669,0,0,0-6.48-.017,7.029,7.029,0,0,0-3.762,12.16c27.548,25.122,13.4,63.037,13.4,63.037C203.876,144.123,170,141.5,170,141.5s-33.876,2.628-45.373-29.234c0,0-14.148-37.915,13.4-63.037a7.029,7.029,0,0,0-3.762-12.16,24.669,24.669,0,0,0-6.48.017,15.228,15.228,0,0,1-13.976-5.345,41.9,41.9,0,0,0-17-12.613,4.967,4.967,0,0,0-6.192,7.062l.221.391a55.915,55.915,0,0,1,6.732,32.5C95.437,82.647,94.019,161.473,170,164.855c75.981-3.382,74.562-82.208,72.427-105.779a55.915,55.915,0,0,1,6.732-32.5c.074-.131.148-.262.222-.391A4.967,4.967,0,0,0,243.188,19.123Z"
        style="fill:currentColor" />
    <path
        d="M181.607,155.688a22.675,22.675,0,0,0,8.944-17.656A51.769,51.769,0,0,1,170,141.5a51.769,51.769,0,0,1-20.551-3.463,22.675,22.675,0,0,0,8.944,17.656A21.675,21.675,0,0,0,170,159.819,21.675,21.675,0,0,0,181.607,155.688Z"
        style="fill:currentColor" />
    <path d="M295.12,156.142a4,4,0,1,1,0-8,3.987,3.987,0,0,1,2.83,1.17,4.005,4.005,0,0,1-2.83,6.83Z"
        style="fill:currentColor" />
    <path
        d="M281.72,177.132a4.047,4.047,0,0,1-2.83-1.17,4.093,4.093,0,0,1-.49-.61,4.033,4.033,0,0,1-.6-1.44,3.842,3.842,0,0,1,0-1.56,4.033,4.033,0,0,1,.6-1.44,3.607,3.607,0,0,1,1.1-1.1,4.033,4.033,0,0,1,1.44-.6,3.728,3.728,0,0,1,1.56,0,4.033,4.033,0,0,1,1.44.6,4.093,4.093,0,0,1,.61.49,4.919,4.919,0,0,1,.5.61,4.524,4.524,0,0,1,.36.69,3.832,3.832,0,0,1,.23.75,3.842,3.842,0,0,1,0,1.56,3.832,3.832,0,0,1-.23.75,4.524,4.524,0,0,1-.36.69,4,4,0,0,1-1.11,1.11,4.524,4.524,0,0,1-.69.36,3.832,3.832,0,0,1-.75.23A4.129,4.129,0,0,1,281.72,177.132Z"
        style="fill:currentColor" />
    <path
        d="M264.78,194.152a4.15,4.15,0,0,1-.79-.08,3.956,3.956,0,0,1-.74-.23,3.6,3.6,0,0,1-.7-.37,4.013,4.013,0,0,1-.6-.49,3.605,3.605,0,0,1-.5-.61,4.579,4.579,0,0,1-.37-.69,3.832,3.832,0,0,1-.23-.75,3.843,3.843,0,0,1,0-1.56,4.033,4.033,0,0,1,.6-1.44,3.251,3.251,0,0,1,.5-.61,4.82,4.82,0,0,1,.6-.5,4.2,4.2,0,0,1,.7-.36,3.956,3.956,0,0,1,.74-.23,3.776,3.776,0,0,1,1.57,0,4.3,4.3,0,0,1,.75.23,4.524,4.524,0,0,1,.69.36,4.82,4.82,0,0,1,.6.5,3.694,3.694,0,0,1,.5.61,4.033,4.033,0,0,1,.6,1.44,3.843,3.843,0,0,1,0,1.56,4.033,4.033,0,0,1-.6,1.44,4.161,4.161,0,0,1-.5.61,4.013,4.013,0,0,1-.6.49,3.828,3.828,0,0,1-.69.37,4.3,4.3,0,0,1-.75.23A4.129,4.129,0,0,1,264.78,194.152Z"
        style="fill:currentColor" />
    <path
        d="M294.12,220.539a4.131,4.131,0,0,1-.78-.081,4.049,4.049,0,0,1-.75-.229,3.9,3.9,0,0,1-.69-.371,4.093,4.093,0,0,1-.61-.49,4.043,4.043,0,0,1-.49-.61,4.033,4.033,0,0,1-.6-1.44,4.119,4.119,0,0,1-.08-.779,4.065,4.065,0,0,1,1.17-2.831,4.919,4.919,0,0,1,.61-.5,3.712,3.712,0,0,1,.69-.359,4,4,0,0,1,4.36,6.519,3.639,3.639,0,0,1-.61.49,3.577,3.577,0,0,1-.69.371,3.83,3.83,0,0,1-.75.229A4.047,4.047,0,0,1,294.12,220.539Z"
        style="fill:currentColor" />
    <path
        d="M300.27,245.415a4,4,0,0,1-2.83-6.83,4.161,4.161,0,0,1,.61-.5,4.579,4.579,0,0,1,.69-.37,4.659,4.659,0,0,1,.75-.23,4.094,4.094,0,0,1,1.56,0,4.659,4.659,0,0,1,.75.23,4.579,4.579,0,0,1,.69.37,3.694,3.694,0,0,1,.61.5,4,4,0,0,1,0,5.65,4.161,4.161,0,0,1-.61.5,4.033,4.033,0,0,1-1.44.6A4.129,4.129,0,0,1,300.27,245.415Z"
        style="fill:currentColor" />
    <path
        d="M275.22,240.511a3.914,3.914,0,0,1-3.32-1.78,4.033,4.033,0,0,1-.6-1.44,3.842,3.842,0,0,1,0-1.56,4.033,4.033,0,0,1,.6-1.44,4,4,0,0,1,6.15-.61,4.919,4.919,0,0,1,.5.61,5.7,5.7,0,0,1,.37.69,4.635,4.635,0,0,1,.22.75,3.842,3.842,0,0,1,0,1.56,4.635,4.635,0,0,1-.22.75,5.7,5.7,0,0,1-.37.69,4.919,4.919,0,0,1-.5.61A4.065,4.065,0,0,1,275.22,240.511Z"
        style="fill:currentColor" />
    <path
        d="M272.65,269.372a4.114,4.114,0,0,1-.78-.07,5.371,5.371,0,0,1-.75-.23,4.579,4.579,0,0,1-.69-.37,3.62,3.62,0,0,1-.6-.5,3.251,3.251,0,0,1-.5-.61,4.143,4.143,0,0,1-.37-.69,3.832,3.832,0,0,1-.23-.75,4.047,4.047,0,0,1-.08-.78,4.129,4.129,0,0,1,.08-.78,4.053,4.053,0,0,1,.23-.75,4.579,4.579,0,0,1,.37-.69,3.188,3.188,0,0,1,.5-.6,4.035,4.035,0,0,1,3.61-1.1,3.956,3.956,0,0,1,.74.23,4.049,4.049,0,0,1,1.3.87,3.62,3.62,0,0,1,.5.6,4.579,4.579,0,0,1,.37.69,4.99,4.99,0,0,1,.23.75,4.114,4.114,0,0,1,.07.78,3.995,3.995,0,0,1-4,4Z"
        style="fill:currentColor" />
    <path d="M302.82,276.112a4,4,0,0,1-2.83-6.83,4,4,0,1,1,2.83,6.83Z" style="fill:#363b42" />
    <path
        d="M45.877,220.539a4.047,4.047,0,0,1-.78-.081,3.83,3.83,0,0,1-.75-.229,3.577,3.577,0,0,1-.69-.371,3.722,3.722,0,0,1-.61-.49,4.109,4.109,0,0,1-.5-.61,4.485,4.485,0,0,1-.37-.69,3.767,3.767,0,0,1-.219-.75,3.437,3.437,0,0,1-.081-.779,4.022,4.022,0,0,1,1.17-2.831,4.393,4.393,0,0,1,.61-.5,3.424,3.424,0,0,1,.69-.359,3.835,3.835,0,0,1,.75-.231,4,4,0,0,1,3.611,6.75,4.1,4.1,0,0,1-.611.49,3.862,3.862,0,0,1-.69.371,4.026,4.026,0,0,1-.75.229A4.123,4.123,0,0,1,45.877,220.539Z"
        style="fill:currentColor" />
    <path
        d="M39.729,245.415a4.129,4.129,0,0,1-.78-.08,3.832,3.832,0,0,1-.75-.23,4.579,4.579,0,0,1-.69-.37,4.161,4.161,0,0,1-.61-.5,4,4,0,0,1,0-5.65,3.694,3.694,0,0,1,.61-.5,4.579,4.579,0,0,1,.69-.37,4.659,4.659,0,0,1,.75-.23,4.094,4.094,0,0,1,1.56,0,4.659,4.659,0,0,1,.75.23,4.579,4.579,0,0,1,.69.37,4.161,4.161,0,0,1,.61.5,4.005,4.005,0,0,1-2.83,6.83Z"
        style="fill:currentColor" />
    <path
        d="M64.78,240.533a4.042,4.042,0,0,1-2.83-1.17,4.919,4.919,0,0,1-.5-.61,4.524,4.524,0,0,1-.36-.69,3.832,3.832,0,0,1-.23-.75,3.843,3.843,0,0,1,0-1.56,3.832,3.832,0,0,1,.23-.75,4.524,4.524,0,0,1,.36-.69,4.994,4.994,0,0,1,.5-.61,4,4,0,0,1,5.66,5.66,4.919,4.919,0,0,1-.61.5,4.436,4.436,0,0,1-.69.36,3.832,3.832,0,0,1-.75.23A4.129,4.129,0,0,1,64.78,240.533Z"
        style="fill:currentColor" />
    <path
        d="M67.35,269.372a3.995,3.995,0,0,1-4-4,4.114,4.114,0,0,1,.07-.78,4.99,4.99,0,0,1,.23-.75,4.579,4.579,0,0,1,.37-.69,3.62,3.62,0,0,1,.5-.6,4.049,4.049,0,0,1,1.3-.87,3.956,3.956,0,0,1,.74-.23,4.146,4.146,0,0,1,1.57,0,4.3,4.3,0,0,1,.75.23,3.828,3.828,0,0,1,.69.37,4.313,4.313,0,0,1,1.1,1.1,3.828,3.828,0,0,1,.37.69,4.053,4.053,0,0,1,.23.75,4.129,4.129,0,0,1,.08.78,4.012,4.012,0,0,1-4,4Z"
        style="fill:currentColor" />
    <path d="M37.18,276.112a4.012,4.012,0,0,1-4-4,4,4,0,1,1,8,0,3.995,3.995,0,0,1-4,4Z"
        style="fill:currentColor" />
    <path d="M44.88,156.142a4.012,4.012,0,1,1,2.83-1.18A4,4,0,0,1,44.88,156.142Z"
        style="fill:currentColor" />
    <path
        d="M58.28,177.132a4.129,4.129,0,0,1-.78-.08,3.832,3.832,0,0,1-.75-.23,4.524,4.524,0,0,1-.69-.36,4,4,0,0,1-1.11-1.11,4.524,4.524,0,0,1-.36-.69,3.832,3.832,0,0,1-.23-.75,3.843,3.843,0,0,1,0-1.56,3.832,3.832,0,0,1,.23-.75,4.524,4.524,0,0,1,.36-.69,4.919,4.919,0,0,1,.5-.61,4.093,4.093,0,0,1,.61-.49,4.033,4.033,0,0,1,1.44-.6,3.729,3.729,0,0,1,1.56,0,4.033,4.033,0,0,1,1.44.6,4.093,4.093,0,0,1,.61.49,4.919,4.919,0,0,1,.5.61,4.524,4.524,0,0,1,.36.69,3.832,3.832,0,0,1,.23.75,3.842,3.842,0,0,1,0,1.56,3.832,3.832,0,0,1-.23.75,4.524,4.524,0,0,1-.36.69,4,4,0,0,1-1.11,1.11,4.524,4.524,0,0,1-.69.36,3.832,3.832,0,0,1-.75.23A4.129,4.129,0,0,1,58.28,177.132Z"
        style="fill:currentColor" />
    <path
        d="M75.22,194.152a3.995,3.995,0,0,1-3.99-4,4.114,4.114,0,0,1,.07-.78,4.033,4.033,0,0,1,.6-1.44,3.251,3.251,0,0,1,.5-.61,4.021,4.021,0,0,1,3.61-1.09,3.956,3.956,0,0,1,.74.23,3.576,3.576,0,0,1,1.3.86,3.251,3.251,0,0,1,.5.61,4.033,4.033,0,0,1,.6,1.44,3.842,3.842,0,0,1,0,1.56,4.033,4.033,0,0,1-.6,1.44,3.605,3.605,0,0,1-.5.61A4.029,4.029,0,0,1,75.22,194.152Z"
        style="fill:currentColor" />
    <path
        d="M235.353,187.824l4.759,6.509a130.039,130.039,0,0,0,59.151-68.795l-6.331-6.373A123.629,123.629,0,0,1,235.353,187.824Z"
        style="fill:currentColor" />
    <path
        d="M47.068,119.165l-6.331,6.373a130.039,130.039,0,0,0,59.151,68.8l4.759-6.509A123.629,123.629,0,0,1,47.068,119.165Z"
        style="fill:currentColor" />
    <path
        d="M183.859,126.881c-4.944-7.589-13.859-7.617-13.859-7.617s-8.915.028-13.858,7.617a17.056,17.056,0,0,0,4.515,23.158A18.107,18.107,0,0,0,170,153.176a18.114,18.114,0,0,0,9.344-3.137A17.058,17.058,0,0,0,183.859,126.881Z"
        style="fill:currentColor" />
    <path
        d="M168.608,130.571a9.366,9.366,0,0,1,4.255-3.983,1.177,1.177,0,0,0-.24-2.2,12.111,12.111,0,0,0-2.623-.4s-6.754-.692-10,5.493c-3.032,5.786-2.118,12.987,3.256,16.7A13.056,13.056,0,0,0,170,148.449l.032,0a1.172,1.172,0,0,0,.675-2.054C167.929,144.038,164.125,138.944,168.608,130.571Z"
        style="fill:currentColor" />
    <path
        d="M138.3,95.442a42.543,42.543,0,0,0,3.405,9.376,4.7,4.7,0,0,0,8.3.138,89.335,89.335,0,0,1,11.318-16.189,3.573,3.573,0,0,0-3.483-5.845,51.975,51.975,0,0,0-17.611,7.54A4.685,4.685,0,0,0,138.3,95.442Z"
        style="fill:currentColor" />
    <path
        d="M165.79,210.867v27.506a3.7,3.7,0,0,1-5.059,3.444,38.932,38.932,0,0,1-9.251-5,9.936,9.936,0,0,1-3.362-10.9,53.752,53.752,0,0,1,9.927-17.817,4.4,4.4,0,0,1,3.382-1.6h0A4.363,4.363,0,0,1,165.79,210.867Z"
        style="fill:currentColor" />
</g>

<!--scills-->
<g id="html">
    <path
        d="M22.1325 102.004L13.7063 7.5H106.294L97.8563 101.989L59.9438 112.5L22.1325 102.004Z"
        fill="#E44F26" />
    <path d="M60 104.468L90.6375 95.9738L97.845 15.2288H60V104.468Z" fill="#F1662A" />
    <path
        d="M60 50.2763H44.6625L43.605 38.4075H60V26.8163H30.9375L31.215 29.9288L34.0613 61.8675H60V50.2763ZM60 80.3775L59.9475 80.3925L47.04 76.9088L46.215 67.665H34.5787L36.2025 85.86L59.9475 92.4525L60 92.4375V80.3775Z"
        fill="#EBEBEB" />
    <path
        d="M59.9587 50.2763V61.8675H74.2312L72.8887 76.9013L59.9587 80.3888V92.4488L83.7225 85.86L83.895 83.9025L86.6175 53.3888L86.9025 50.2763H59.9587ZM59.9587 26.8163V38.4075H87.9562L88.1887 35.805L88.7175 29.9288L88.995 26.8163H59.9587Z"
        fill="white" />
</g>

<g id="css">
    <path
        d="M22.1325 101.154L13.71 7.4375H106.29L97.8562 101.139L59.9437 111.562L22.1325 101.154Z"
        fill="#1572B6" />
    <path d="M60 103.597L90.6375 95.1739L97.845 15.1018H60V103.597Z" fill="#33A9DC" />
    <path
        d="M60 49.054H75.3375L76.395 37.2842H60V25.7896H89.0625L88.785 28.8724L85.9387 60.5487H60V49.054Z"
        fill="white" />
    <path
        d="M60.0713 78.9045L60.0188 78.9193L47.1113 75.4609L46.2863 66.2942H34.65L36.2738 84.3413L60.015 90.8788L60.0713 90.864V78.9045Z"
        fill="#EBEBEB" />
    <path
        d="M74.3513 60.0615L72.9563 75.4534L60.03 78.9119V90.8714L83.79 84.3412L83.9663 82.4001L85.98 60.0615H74.3513Z"
        fill="white" />
    <path
        d="M60.0413 25.7896V37.2842H32.0438L31.8113 34.6997L31.2825 28.8724L31.005 25.7896H60.0413ZM60 49.054V60.5487H47.2538L47.0213 57.9642L46.4963 52.1369L46.2188 49.054H60Z"
        fill="#EBEBEB" />
</g>

<g id="js">
    <path d="M7.5 7.5H112.5V112.5H7.5V7.5Z" fill="#F5DE19" />
    <path
        d="M78.0338 89.5312C78.9284 91.3485 80.3183 92.8759 82.0434 93.9375C83.7684 94.9991 85.7584 95.5515 87.7838 95.5313C91.8713 95.5313 94.485 93.4875 94.485 90.6562C94.485 87.2812 91.8 86.0738 87.3 84.105L84.8325 83.0475C77.7075 80.0138 72.9825 76.215 72.9825 68.1825C72.9825 60.7838 78.6075 55.1475 87.4313 55.1475C90.2877 54.9412 93.1416 55.5805 95.637 56.9856C98.1324 58.3907 100.159 60.4994 101.464 63.0488L93.75 67.98C93.2476 66.716 92.3728 65.6345 91.2416 64.879C90.1105 64.1236 88.7764 63.7298 87.4163 63.75C86.8229 63.6906 86.2236 63.7555 85.6567 63.9404C85.0897 64.1254 84.5675 64.4265 84.1234 64.8244C83.6792 65.2224 83.3228 65.7085 83.0769 66.2518C82.831 66.7951 82.7009 67.3837 82.695 67.98C82.695 70.9388 84.5288 72.1388 88.7625 73.98L91.23 75.0375C99.615 78.6338 104.355 82.2975 104.355 90.5363C104.355 99.42 97.3763 104.287 88.005 104.287C84.3537 104.52 80.713 103.691 77.5223 101.901C74.3317 100.11 71.7274 97.4342 70.0238 94.1963L78.0338 89.5312ZM43.1775 90.3863C44.7263 93.135 46.1363 95.46 49.5263 95.46C52.7663 95.46 54.8138 94.1925 54.8138 89.2612V55.71H64.68V89.3925C64.68 99.6075 58.68 104.257 49.9463 104.257C46.8591 104.426 43.7931 103.657 41.1513 102.051C38.5096 100.444 36.4157 98.0761 35.145 95.2575L43.1775 90.3863Z"
        fill="black" />
</g>

<g id="ts">
    <path d="M0 60V120H60H120V60V0H60H0V60Z" fill="#007ACC" />
    <path
        d="M26.5374 60.3979L26.4993 65.3122H34.3088H42.1184L42.1184 87.5026V109.693H47.6422H53.166V87.5026L53.166 65.3122H60.9755H68.785V60.4931C68.785 57.8264 68.7279 55.5979 68.6517 55.5407C68.5946 55.4645 59.0898 55.4264 47.566 55.4455L26.5946 55.5026L26.5374 60.3979Z"
        fill="white" />
    <path
        d="M96.8264 55.3636C99.874 56.1255 102.198 57.4779 104.331 59.6874C105.436 60.8684 107.074 63.0208 107.207 63.535C107.245 63.6874 102.026 67.1922 98.8644 69.1541C98.7502 69.2303 98.293 68.7351 97.7787 67.9731C96.2359 65.7255 94.6168 64.7541 92.1406 64.5827C88.5025 64.335 86.1597 66.2398 86.1787 69.4208C86.1787 70.3541 86.3121 70.9065 86.693 71.6684C87.493 73.3255 88.9787 74.316 93.6454 76.3351C102.236 80.0303 105.912 82.4684 108.198 85.935C110.75 89.8017 111.322 95.9731 109.588 100.564C107.683 105.554 102.96 108.945 96.3121 110.068C94.2549 110.43 89.3787 110.373 87.1692 109.973C82.3502 109.116 77.7787 106.735 74.9597 103.611C73.8549 102.392 71.7025 99.2112 71.8359 98.9827C71.893 98.9065 72.3883 98.6017 72.9406 98.2779C73.474 97.9731 75.493 96.8112 77.3978 95.7065L80.8454 93.7065L81.5692 94.7731C82.5787 96.316 84.7883 98.4303 86.1216 99.135C89.9502 101.154 95.2073 100.868 97.7978 98.5446C98.9025 97.535 99.3597 96.4874 99.3597 94.9446C99.3597 93.5541 99.1883 92.9446 98.4644 91.897C97.5311 90.5636 95.6263 89.4398 90.2168 87.097C84.0263 84.4303 81.3597 82.7731 78.9216 80.1446C77.5121 78.6208 76.1787 76.1827 75.6264 74.1446C75.1692 72.4493 75.0549 68.2017 75.4168 66.4874C76.693 60.5065 81.2073 56.335 87.7216 55.097C89.8359 54.697 94.7502 54.8493 96.8264 55.3636Z"
        fill="white" />
</g>

<g id="react">
    <g clip-path="url(#clip0_2_5870)">
        <path
            d="M92.9056 32.7028C91.7031 32.2887 90.4904 31.9051 89.2687 31.5524C89.4739 30.7107 89.6628 29.8792 89.8306 29.0624C92.5838 15.6484 90.7839 4.84184 84.6361 1.28381C78.7416 -2.12716 69.1016 1.42955 59.3659 9.93348C58.4064 10.7731 57.4682 11.6369 56.5522 12.524C55.9389 11.9341 55.3149 11.3556 54.6803 10.7889C44.4767 1.69623 34.2493 -2.13602 28.1081 1.43221C22.2189 4.8538 20.475 15.0127 22.9538 27.7254C23.2004 28.9845 23.4788 30.2371 23.7888 31.4819C22.3412 31.8948 20.9442 32.3342 19.6073 32.802C7.64443 36.9882 0.00476074 43.5483 0.00476074 50.353C0.00476074 57.3809 8.20629 64.4301 20.6662 68.7044C21.6763 69.0495 22.6949 69.3693 23.7209 69.6635C23.3877 71.0042 23.0918 72.3541 22.8337 73.7114C20.4706 86.2035 22.316 96.1224 28.1893 99.5223C34.2555 103.033 44.437 99.4248 54.3506 90.7268C55.1545 90.0197 55.9407 89.2925 56.7084 88.546C57.7004 89.5067 58.7189 90.4394 59.7627 91.343C69.366 99.6365 78.8502 102.985 84.7177 99.5763C90.7782 96.055 92.748 85.3995 90.1907 72.4357C89.9893 71.42 89.7634 70.4094 89.5132 69.4048C90.2282 69.1921 90.93 68.9733 91.6141 68.7456C104.567 64.4385 112.995 57.4748 112.995 50.353C112.995 43.5235 105.109 36.9191 92.9056 32.7028ZM90.0963 64.1474C89.4783 64.3525 88.8445 64.5506 88.1984 64.7433C86.7683 60.1996 84.8387 55.3684 82.4769 50.3764C84.7305 45.5036 86.586 40.7341 87.9759 36.2201C89.1319 36.5558 90.2534 36.9098 91.3347 37.2832C101.791 40.8962 108.169 46.2372 108.169 50.353C108.169 54.7367 101.281 60.4277 90.0963 64.1474ZM85.4557 73.3765C86.5865 79.1087 86.7476 84.2916 85.9986 88.3436C85.3259 91.9845 83.9727 94.4116 82.299 95.3839C78.7385 97.4526 71.1235 94.7637 62.911 87.6707C61.9401 86.8305 60.9927 85.9634 60.0699 85.0704C63.2539 81.5757 66.4358 77.5131 69.5412 73.0009C75.0036 72.5145 80.1641 71.7189 84.844 70.6332C85.0694 71.5426 85.2734 72.4574 85.4557 73.3765ZM38.5257 95.0264C35.0469 96.2592 32.2759 96.2947 30.6009 95.3254C27.0369 93.2625 25.5552 85.2981 27.5762 74.6151C27.8165 73.3527 28.0916 72.0973 28.4012 70.8502C33.0294 71.8779 38.1523 72.6168 43.6275 73.0625C46.7542 77.4777 50.0278 81.5358 53.3271 85.0894C52.6259 85.7704 51.9082 86.4339 51.1745 87.0793C46.7904 90.9253 42.3974 93.6541 38.5257 95.0264ZM22.2277 64.1204C16.7181 62.2302 12.168 59.7739 9.04931 57.0934C6.24661 54.6849 4.83202 52.2932 4.83202 50.353C4.83202 46.2235 10.9657 40.9564 21.1962 37.3767C22.4378 36.9426 23.7372 36.5328 25.0856 36.1483C26.4997 40.7642 28.3544 45.5905 30.5926 50.4708C28.3252 55.4233 26.4441 60.3267 25.0163 64.9971C24.0798 64.7278 23.15 64.4355 22.2277 64.1204ZM27.691 26.7947C25.5676 15.9031 26.9777 7.68712 30.5268 5.62504C34.3067 3.42873 42.6653 6.56017 51.4755 14.4116C52.05 14.9247 52.6152 15.4483 53.1708 15.982C49.8879 19.5201 46.6443 23.5481 43.5454 27.9372C38.2313 28.4315 33.1446 29.2254 28.4678 30.289C28.1797 29.1311 27.9206 27.9661 27.691 26.7952V26.7947ZM76.4301 38.874C75.3255 36.9589 74.1799 35.068 72.9941 33.2025C76.5992 33.6601 80.0533 34.2674 83.297 35.0098C82.3233 38.1426 81.1095 41.4176 79.6808 44.7754C78.6365 42.7867 77.5527 40.8192 76.4301 38.874ZM56.5544 19.4443C58.7806 21.8652 61.0104 24.5679 63.2036 27.5004C58.7546 27.2895 54.2982 27.2886 49.8491 27.4977C52.0445 24.5922 54.2932 21.8931 56.5544 19.4443ZM36.5511 38.9072C35.4425 40.8368 34.3789 42.792 33.3613 44.7714C31.956 41.4255 30.7532 38.1355 29.7712 34.9584C32.9949 34.2346 36.4328 33.6428 40.0149 33.1936C38.8159 35.0705 37.661 36.9754 36.5511 38.9067V38.9072ZM40.1178 67.857C36.4169 67.4424 32.9274 66.8811 29.7045 66.1768C30.702 62.943 31.9312 59.583 33.367 56.1653C34.3887 58.1462 35.4567 60.1026 36.57 62.0331C37.7149 64.0177 38.9005 65.9615 40.1178 67.857ZM56.6877 81.6027C54.3996 79.1256 52.1177 76.3848 49.8892 73.4372C52.0528 73.5223 54.2584 73.5657 56.5001 73.5657C58.8031 73.5657 61.0797 73.5139 63.3206 73.4138C61.1203 76.4145 58.8989 79.1592 56.6877 81.6027ZM79.7263 55.9908C81.2366 59.4461 82.5096 62.7884 83.5203 65.9668C80.2444 66.7172 76.7073 67.3214 72.9804 67.7702C74.1746 65.87 75.3311 63.9462 76.4491 61.9999C77.5858 60.0215 78.6784 58.018 79.7263 55.9908ZM72.268 59.5794C70.5565 62.5635 68.7487 65.491 66.8475 68.3571C63.4038 68.6019 59.9525 68.7235 56.5001 68.7217C52.9837 68.7217 49.5635 68.6118 46.27 68.3974C44.3193 65.5379 42.477 62.6053 40.7472 59.606H40.7476C39.0259 56.6225 37.4177 53.5745 35.9265 50.4686C37.4139 47.3619 39.0172 44.3125 40.733 41.3268L40.7326 41.3272C42.4478 38.3407 44.2753 35.4207 46.2113 32.5734C49.5715 32.3183 53.0172 32.1854 56.4996 32.1854H56.5001C59.9984 32.1854 63.4486 32.3196 66.8078 32.5765C68.7243 35.4195 70.5402 38.3295 72.2521 41.3011C73.9736 44.2802 75.5982 47.3148 77.1231 50.3999C75.6138 53.5166 73.9944 56.5784 72.268 59.5794ZM82.2253 5.48062C86.0087 7.67073 87.4803 16.5025 85.103 28.0842C84.9512 28.8231 84.7808 29.5758 84.5955 30.339C79.9072 29.2528 74.8169 28.4453 69.4874 27.9434C66.3828 23.506 63.1656 19.4718 59.9361 15.9793C60.7825 15.1605 61.6491 14.3628 62.5349 13.5872C70.8768 6.30147 78.6732 3.42474 82.2253 5.48062ZM56.5001 40.2264C62.0724 40.2264 66.5898 44.7603 66.5898 50.353C66.5898 55.9456 62.0724 60.4796 56.5001 60.4796C50.9278 60.4796 46.4104 55.9456 46.4104 50.353C46.4104 44.7603 50.9278 40.2264 56.5001 40.2264Z"
            fill="#00D8FF" />
    </g>
    <defs>
        <clipPath id="clip0_2_5870">
            <rect width="113" height="101" fill="white" />
        </clipPath>
    </defs>
</g>

<g id="redux">
    <path id="Vector"
        d="M72.6971 69.5627C76.5688 69.1619 79.5061 65.8242 79.3725 61.8184C79.2393 57.8131 75.9012 54.6086 71.8959 54.6086H71.6291C67.4897 54.7422 64.2856 58.2135 64.4193 62.3525C64.5529 64.3553 65.3537 66.091 66.5553 67.2926C62.016 76.2385 55.0734 82.7807 44.6594 88.2549C37.5832 91.9934 30.2402 93.3287 22.8971 92.3943C16.8889 91.593 12.216 88.923 9.27827 84.5164C5.00614 77.9742 4.60573 70.8975 8.21065 63.8213C10.7475 58.7475 14.7525 55.009 17.2893 53.1398C16.7553 51.4041 15.9541 48.4668 15.5537 46.3307C-3.80574 60.35 -1.80287 79.3094 4.07172 88.2549C8.47745 94.9311 17.4229 99.0701 27.3029 99.0701C29.9729 99.0701 32.643 98.8029 35.3135 98.1357C52.4033 94.7975 65.3541 84.65 72.6971 69.5627ZM96.1955 53.0066C86.0483 41.1234 71.0951 34.5811 54.0053 34.5811H51.8693C50.6676 32.1779 48.1307 30.5754 45.327 30.5754H45.0598C40.9213 30.709 37.7172 34.1803 37.8504 38.3197C37.984 42.325 41.3217 45.5295 45.327 45.5295H45.5938C48.5311 45.3959 51.068 43.5266 52.1361 40.9898H54.5393C64.6865 40.9898 74.2992 43.927 82.9779 49.6684C89.6533 54.0746 94.4598 59.816 97.1299 66.7586C99.3996 72.3664 99.266 77.8406 96.8627 82.5139C93.1246 89.5902 86.8496 93.4623 78.5717 93.4623C73.2311 93.4623 68.1578 91.8598 65.4873 90.6582C64.0188 91.9934 61.3484 94.1295 59.4791 95.4652C65.2205 98.1352 71.0951 99.6041 76.7025 99.6041C89.5197 99.6041 98.9992 92.5275 102.604 85.4512C106.476 77.707 106.209 64.3553 96.1955 53.0066ZM28.3709 71.832C28.5045 75.8377 31.8422 79.0418 35.8475 79.0418H36.1147C40.2537 78.9086 43.4578 75.4369 43.3242 71.2979C43.191 67.2922 39.8529 64.0881 35.8475 64.0881H35.5807C35.3135 64.0881 34.9127 64.0881 34.6463 64.2213C29.1721 55.1422 26.9025 45.2623 27.7037 34.5807C28.2373 26.5697 30.9078 19.6266 35.5807 13.8852C39.4525 8.94508 46.9291 6.5418 52.0029 6.40861C66.1549 6.14139 72.1627 23.7656 72.5635 30.8422C74.2992 31.2426 77.2365 32.1775 79.2393 32.8451C77.6369 11.2156 64.2856 0 51.4688 0C39.4524 0 28.3709 8.67869 23.9647 21.4963C17.8234 38.5865 21.8287 55.009 29.3053 67.9602C28.6381 68.8947 28.2373 70.3635 28.3709 71.8324V71.832Z"
        fill="#764ABC" />
</g>

<!--social
    icons-->
<g id="telegrm">
    <path id="Vector"
        d="M19.8185 4.96318L17.1776 17.4176C16.9782 18.2965 16.4588 18.5152 15.7206 18.1015L11.6964 15.1361L9.75497 17.0038C9.53994 17.2189 9.36055 17.3983 8.94613 17.3983L9.23554 13.3003L16.6932 6.56148C17.0176 6.2727 16.6226 6.11206 16.1894 6.40146L6.96967 12.2071L3.0005 10.9644C2.13728 10.695 2.12166 10.1012 3.18052 9.68681L18.7053 3.70555C19.4241 3.43615 20.0529 3.86494 19.8185 4.96318Z"
        fill="currentColor" />
</g>

<g id="vk">
    <path id="Vector"
        d="M18.1695 13.9941C17.8037 13.5391 17.388 13.1314 16.986 12.737C16.8431 12.5968 16.6953 12.4518 16.5528 12.3076C16.1438 11.8932 16.1289 11.7375 16.4527 11.2668C16.6768 10.9424 16.9143 10.6175 17.1441 10.3033C17.3524 10.0183 17.5679 9.72351 17.7745 9.42777L17.8169 9.36697C18.2116 8.80103 18.6198 8.21583 18.8371 7.50988C18.8935 7.32363 18.9527 7.04955 18.8173 6.82036C18.6819 6.59137 18.4194 6.52151 18.2336 6.48888C18.1417 6.47273 18.0505 6.47053 17.9658 6.47053L15.3808 6.46861L15.3594 6.46842C14.9686 6.46842 14.7052 6.65927 14.5543 7.05194C14.4102 7.42713 14.2519 7.82665 14.0713 8.20653C13.7118 8.96298 13.2553 9.83425 12.5947 10.5609L12.5668 10.5918C12.4888 10.6787 12.4004 10.777 12.3358 10.777C12.3259 10.777 12.3151 10.7751 12.3029 10.7711C12.1661 10.7159 12.0743 10.3726 12.0784 10.213C12.0785 10.2108 12.0785 10.2086 12.0785 10.2064L12.0767 7.1105C12.0767 7.09976 12.076 7.08913 12.0746 7.07849C12.0089 6.57522 11.8632 6.26195 11.3128 6.15026C11.2982 6.14724 11.2833 6.14575 11.2684 6.14575H8.58049C8.14257 6.14575 7.90128 6.33018 7.67446 6.60623C7.61323 6.68002 7.48579 6.83364 7.54895 7.01998C7.61305 7.20911 7.82109 7.24955 7.88884 7.26268C8.22511 7.32899 8.41466 7.54213 8.46835 7.91453C8.56208 8.56121 8.5736 9.25144 8.5046 10.0868C8.48537 10.3189 8.44731 10.4982 8.38461 10.6514C8.37004 10.6872 8.31839 10.8038 8.26572 10.8039C8.24898 10.8039 8.20056 10.7971 8.11237 10.7341C7.90387 10.5861 7.75131 10.3749 7.57346 10.114C6.96842 9.22796 6.46063 8.25191 6.02086 7.12938C5.85777 6.71615 5.55317 6.48481 5.16279 6.478C4.73384 6.47125 4.34494 6.46799 3.97402 6.46799C3.56875 6.46799 3.19303 6.47187 2.82614 6.47978C2.51206 6.48553 2.29481 6.58308 2.1805 6.76996C2.06601 6.95697 2.07345 7.20264 2.20265 7.50001C3.23692 9.88254 4.17467 11.6149 5.24334 13.1171C5.99215 14.1683 6.74322 14.8959 7.60676 15.4068C8.51654 15.9461 9.53609 16.2083 10.7236 16.2083C10.8582 16.2083 10.9974 16.2048 11.1378 16.198C11.8278 16.1632 12.0838 15.9044 12.1162 15.2082C12.1316 14.8525 12.1691 14.4793 12.3379 14.1611C12.4444 13.9606 12.5438 13.9606 12.5764 13.9606C12.6393 13.9606 12.7173 13.9906 12.801 14.0468C12.9512 14.1484 13.08 14.2845 13.1856 14.4034C13.2849 14.5163 13.3832 14.6304 13.4816 14.7446C13.6938 14.9909 13.9133 15.2456 14.1426 15.4871C14.6444 16.0162 15.1972 16.2488 15.8322 16.1983H18.2022C18.2072 16.1983 18.2123 16.1981 18.2174 16.1978C18.4535 16.1817 18.6581 16.0459 18.7785 15.8254C18.9277 15.5522 18.9247 15.2037 18.7705 14.893C18.5955 14.5415 18.3684 14.2413 18.1695 13.9941Z"
        fill="currentColor" />
</g>

<g id="insta">
    <path id="Vector"
        d="M16.4287 2.18774H5.69629C3.83008 2.18774 2.3125 3.70473 2.3125 5.57021V9.14401V16.3053C2.3125 18.1708 3.83008 19.6877 5.69629 19.6877H16.4287C18.2949 19.6877 19.8125 18.1708 19.8125 16.3053V9.13718V5.56338C19.8057 3.70473 18.2881 2.18774 16.4287 2.18774ZM17.3994 4.20356H17.7891V4.58622V7.1692L14.8291 7.17603L14.8223 4.21039L17.3994 4.20356ZM8.56055 9.13718C9.12109 8.36502 10.0303 7.85252 11.0557 7.85252C12.0811 7.85252 12.9902 8.35819 13.5508 9.13718C13.9199 9.64284 14.1318 10.2647 14.1318 10.9343C14.1318 12.629 12.751 14.0161 11.0488 14.0161C9.34668 14.0161 7.97949 12.629 7.97949 10.9343C7.97949 10.2647 8.19824 9.64284 8.56055 9.13718ZM18.1035 16.2984C18.1035 17.2209 17.3516 17.9726 16.4287 17.9726H5.69629C4.77344 17.9726 4.02148 17.2209 4.02148 16.2984V9.13718H6.63281C6.40723 9.69067 6.27734 10.2988 6.27734 10.9343C6.27734 13.572 8.42383 15.7176 11.0625 15.7176C13.7012 15.7176 15.8477 13.572 15.8477 10.9343C15.8477 10.2988 15.7178 9.69067 15.4922 9.13718H18.1035V16.2984Z"
        fill="currentColor" />
</g>

<g id="linkedin">
    <path id="Vector" d="M5.80637 7.88647H2.53296V18.3627H5.80637V7.88647Z" fill="currentColor" />
    <path id="Vector_2"
        d="M4.10076 2.94019C2.89373 2.94019 2.09998 3.72082 2.09998 4.75729C2.09998 5.77408 2.86749 6.57439 4.05484 6.57439H4.08108C5.31434 6.57439 6.08186 5.76752 6.0753 4.75729C6.04906 3.72082 5.30778 2.94019 4.10076 2.94019Z"
        fill="currentColor" />
    <path id="Vector_3"
        d="M14.7475 7.78809C12.8714 7.78809 11.6971 8.81144 11.4807 9.53303V7.88648H7.80054C7.84646 8.75896 7.80054 18.3627 7.80054 18.3627H11.4807V12.7015C11.4807 12.38 11.4675 12.0652 11.5594 11.8421C11.8087 11.2124 12.3531 10.5564 13.3306 10.5564C14.6098 10.5564 15.187 11.5273 15.187 12.9442V18.3627H18.9V12.5375C18.9 9.29687 17.0763 7.78809 14.7475 7.78809Z"
        fill="currentColor" />
</g>

<g id="quote">
    <path
        d="M13.5417 20.8333C13.0771 20.8333 12.6312 20.9042 12.1875 20.9688C12.3312 20.4854 12.4792 19.9938 12.7167 19.5521C12.9542 18.9104 13.325 18.3542 13.6937 17.7938C14.0021 17.1875 14.5458 16.7771 14.9458 16.2583C15.3646 15.7542 15.9354 15.4188 16.3875 15C16.8312 14.5625 17.4125 14.3438 17.875 14.0354C18.3583 13.7583 18.7792 13.4521 19.2292 13.3063L20.3521 12.8438L21.3396 12.4333L20.3292 8.39584L19.0854 8.69584C18.6875 8.79584 18.2021 8.9125 17.65 9.05209C17.0854 9.15625 16.4833 9.44167 15.8125 9.70209C15.15 9.99792 14.3833 10.1979 13.6708 10.6729C12.9542 11.1271 12.1271 11.5063 11.3979 12.1146C10.6917 12.7417 9.83958 13.2854 9.21041 14.0833C8.52291 14.8292 7.84375 15.6125 7.31666 16.5042C6.70625 17.3542 6.29166 18.2875 5.85416 19.2104C5.45833 20.1333 5.13958 21.0771 4.87916 21.9938C4.38541 23.8313 4.16458 25.5771 4.07916 27.0708C4.00833 28.5667 4.05 29.8104 4.1375 30.7104C4.16875 31.1354 4.22708 31.5479 4.26875 31.8333L4.32083 32.1833L4.375 32.1708C4.74554 33.9017 5.59855 35.4924 6.83534 36.7587C8.07213 38.0251 9.64217 38.9154 11.3638 39.3267C13.0855 39.738 14.8884 39.6535 16.5641 39.083C18.2397 38.5124 19.7196 37.4792 20.8325 36.1027C21.9454 34.7262 22.6459 33.0628 22.853 31.3048C23.06 29.5468 22.7651 27.7662 22.0024 26.1688C21.2396 24.5714 20.0403 23.2226 18.543 22.2784C17.0458 21.3342 15.3118 20.8332 13.5417 20.8333ZM36.4583 20.8333C35.9937 20.8333 35.5479 20.9042 35.1042 20.9688C35.2479 20.4854 35.3958 19.9938 35.6333 19.5521C35.8708 18.9104 36.2417 18.3542 36.6104 17.7938C36.9188 17.1875 37.4625 16.7771 37.8625 16.2583C38.2812 15.7542 38.8521 15.4188 39.3042 15C39.7479 14.5625 40.3292 14.3438 40.7917 14.0354C41.275 13.7583 41.6958 13.4521 42.1458 13.3063L43.2687 12.8438L44.2562 12.4333L43.2458 8.39584L42.0021 8.69584C41.6042 8.79584 41.1187 8.9125 40.5667 9.05209C40.0021 9.15625 39.4 9.44167 38.7292 9.70209C38.0688 10 37.3 10.1979 36.5875 10.675C35.8708 11.1292 35.0438 11.5083 34.3146 12.1167C33.6083 12.7438 32.7562 13.2875 32.1271 14.0833C31.4396 14.8292 30.7604 15.6125 30.2333 16.5042C29.6229 17.3542 29.2083 18.2875 28.7708 19.2104C28.375 20.1333 28.0562 21.0771 27.7958 21.9938C27.3021 23.8313 27.0812 25.5771 26.9958 27.0708C26.925 28.5667 26.9667 29.8104 27.0542 30.7104C27.0854 31.1354 27.1437 31.5479 27.1854 31.8333L27.2375 32.1833L27.2917 32.1708C27.6622 33.9017 28.5152 35.4924 29.752 36.7587C30.9888 38.0251 32.5588 38.9154 34.2805 39.3267C36.0022 39.738 37.8051 39.6535 39.4807 39.083C41.1564 38.5124 42.6363 37.4792 43.7492 36.1027C44.8621 34.7262 45.5626 33.0628 45.7696 31.3048C45.9766 29.5468 45.6817 27.7662 44.919 26.1688C44.1563 24.5714 42.957 23.2226 41.4597 22.2784C39.9624 21.3342 38.2284 20.8332 36.4583 20.8333Z"
        fill="currentColor" />
</g>

<g id="goTop">
    <rect id="Rectangle 17" width="30" height="30" fill="black" fill-opacity="0.3" />
    <path id="Vector"
        d="M13.8072 11.2806V22H16.1928V11.2806L21.3134 16.0812L23 14.5L15 7L7 14.5L8.6866 16.0812L13.8072 11.2806Z"
        fill="currentColor" />
</g>
</svg>